A married couple's life is turned upside down when the wife is accused of a murder...
 
http://www.imdb.com/title/tt1458175/

Subs: Dutch, English (srt).


Het leven lijkt perfect voor John Brennan. Totdat zijn vrouw Lara opgepakt wordt voor een gruwelijke moord die ze niet heeft gepleegd. Drie jaar later doet John er alles aan om zijn gezin bij elkaar te houden. Hij voedt hun zoon op, geeft les op school en doet er alles aan om haar onschuld te bewijzen. Als ook het laatste beroep wordt afgewezen en Lara suïcidaal wordt besluit John dat er maar één oplossing mogelijk is; hij moet zijn vrouw uit de gevangenis bevrijden. Hij bedenkt een gedetailleerd vluchtplan en stort zich in een gevaarlijke en onbekende wereld. Uiteindelijk alles op het spel zettend voor de liefde van zijn leven. Remake van de Franse film Pour Elle.
 
http://www.moviemeter.nl/film/69057

Ondertitels: Engels, Nederlands (srt).

General
Complete name                    : The Next Three Days-AC3-XviD-DVDRip 2010 TBS\The Next Three Days-AC3-XviD-DVDRip 2010 TBS.avi
Format                           : AVI
Format/Info                      : Audio Video Interleave
File size                        : 1.46 GiB
Duration                         : 2h 13mn
Overall bit rate                 : 1 572 Kbps
Writing application              : VirtualDubMod 1.5.4.1 (build 2178/release)
Writing library                  : VirtualDubMod build 2178/release

Video
ID                               : 0
Format                           : MPEG-4 Visual
Format profile                   : Simple@L3
Format settings, BVOP            : No
Format settings, QPel            : No
Format settings, GMC             : No warppoints
Format settings, Matrix          : Default (H.263)
Codec ID                         : XVID
Codec ID/Hint                    : XviD
Duration                         : 2h 13mn
Bit rate                         : 1 115 Kbps
Width                            : 720 pixels
Height                           : 304 pixels
Display aspect ratio             : 2.35:1
Frame rate                       : 23.976 fps
Resolution                       : 8 bits
Colorimetry                      : 4:2:0
Scan type                        : Progressive
Bits/(Pixel*Frame)               : 0.212
Stream size                      : 1.04 GiB (71%)
Writing library                  : XviD 1.1.2 (UTC 2006-11-01)

Audio
ID                               : 1
Format                           : AC-3
Format/Info                      : Audio Coding 3
Codec ID                         : 2000
Duration                         : 2h 13mn
Bit rate mode                    : Constant
Bit rate                         : 448 Kbps
Channel(s)                       : 6 channels
Channel positions                : Front: L C R, Surround: L R, LFE
Sampling rate                    : 48.0 KHz
Stream size                      : 427 MiB (28%)
Alignment                        : Split accross interleaves
Interleave, duration             : 42 ms (1.00 video frame)
Interleave, preload duration     : 500 ms

TBS.